<svg width="28" height="24" viewBox="0 0 28 24" fill="none" xmlns="http://www.w3.org/2000/svg">
<path fill-rule="evenodd" clip-rule="evenodd" d="M25.6551 3.80189H1.73468C0.778445 3.80189 0 3.02344 0 2.0672C0 1.11096 0.778445 0.33252 1.73468 0.33252H25.6599C26.6161 0.33252 27.3945 1.11096 27.3945 2.0672C27.3897 3.02825 26.6161 3.80189 25.6551 3.80189ZM25.6551 13.7368H1.73468C0.778445 13.7368 0 12.9583 0 12.0021C0 11.0459 0.778445 10.2674 1.73468 10.2674H25.6599C26.6161 10.2674 27.3945 11.0459 27.3945 12.0021C27.3897 12.9583 26.6161 13.7368 25.6551 13.7368ZM1.73468 23.6671H25.6551C26.6161 23.6671 27.3897 22.8935 27.3945 21.9324C27.3945 20.9762 26.6161 20.1978 25.6599 20.1978H1.73468C0.778445 20.1978 0 20.9762 0 21.9324C0 22.8887 0.778445 23.6671 1.73468 23.6671Z" fill="white"/>
</svg>
