<svg width="160" height="160" viewBox="0 0 160 160" fill="none" xmlns="http://www.w3.org/2000/svg">
<g clip-path="url(#clip0_895_773)">
<path d="M160 0H0V160H160V0Z" fill="#121212"/>
<path d="M11.7122 75.5603L-61.7357 117.824L-88.9083 70.9167L41.6752 -4.22444L67.4662 40.2979L42.637 54.5852L43.4292 55.9527C52.9642 53.9665 62.901 55.3019 71.5851 59.7366C80.4495 64.1999 87.6532 71.2159 93.1962 80.7846C98.5427 90.0142 101.074 99.2665 100.79 108.542C100.53 117.772 97.7004 126.741 92.6177 134.445C87.0186 142.83 79.4558 149.724 70.5821 154.531L-12.7296 202.471L-39.9022 155.564L33.567 113.288C40.0695 109.621 44.1992 105.073 45.956 99.6429C47.7128 94.2127 46.8938 88.5592 43.4989 82.6825C41.5425 79.1145 38.6634 76.134 35.1622 74.0523C31.8355 72.1564 28.0209 71.2909 24.2047 71.5661C19.7933 71.9568 15.5263 73.3211 11.7122 75.5603Z" fill="#C4C4C4"/>
<path d="M102.714 88.6108C120.983 88.6108 135.793 73.8914 135.793 55.7341C135.793 37.5768 120.983 22.8574 102.714 22.8574C84.4449 22.8574 69.6348 37.5768 69.6348 55.7341C69.6348 73.8914 84.4449 88.6108 102.714 88.6108Z" fill="#403AF4"/>
</g>
<defs>
<clipPath id="clip0_895_773">
<rect width="160" height="160" fill="white"/>
</clipPath>
</defs>
</svg>
