<svg width="25" height="19" viewBox="0 0 25 19" fill="none" xmlns="http://www.w3.org/2000/svg">
<path d="M24.0256 2.21662C23.1231 1.14388 21.457 0.706299 18.2751 0.706299H6.72468C3.46992 0.706299 1.77556 1.17211 0.876532 2.3142C0 3.42775 0 5.06847 0 7.33928V11.6674C0 16.0667 1.04 18.3003 6.72468 18.3003H18.2752C21.0345 18.3003 22.5635 17.9142 23.5527 16.9675C24.5672 15.9967 25 14.4116 25 11.6674V7.33928C25 4.94452 24.9322 3.29412 24.0256 2.21662ZM16.0501 10.1009L10.8051 12.8421C10.6878 12.9034 10.5596 12.9338 10.4315 12.9338C10.2865 12.9338 10.1419 12.8948 10.0137 12.8172C9.77242 12.671 9.62508 12.4094 9.62508 12.1273V6.66251C9.62508 6.38089 9.77202 6.1196 10.0128 5.97331C10.2537 5.82702 10.5533 5.81702 10.8032 5.94686L16.0482 8.67041C16.3151 8.80896 16.4827 9.08444 16.4831 9.38501C16.4834 9.68581 16.3165 9.9617 16.0501 10.1009Z" fill="#BABABA"/>
</svg>
