<svg width="90" height="102" viewBox="0 0 90 102" fill="none" xmlns="http://www.w3.org/2000/svg">
<path d="M76.1888 17.6172C70.4525 14.9852 64.3012 13.046 57.8696 11.9353C57.7525 11.9139 57.6355 11.9675 57.5752 12.0746C56.784 13.4816 55.9077 15.3173 55.2941 16.7601C48.3765 15.7244 41.4944 15.7244 34.7187 16.7601C34.1049 15.2852 33.1968 13.4816 32.4022 12.0746C32.3418 11.971 32.2248 11.9175 32.1077 11.9353C25.6797 13.0424 19.5284 14.9816 13.7885 17.6172C13.7388 17.6386 13.6962 17.6744 13.668 17.7208C2.00022 35.1521 -1.19606 52.155 0.371925 68.9471C0.37902 69.0293 0.425137 69.1079 0.488993 69.1578C8.18703 74.8111 15.6439 78.2431 22.9623 80.518C23.0794 80.5537 23.2035 80.5109 23.2781 80.4144C25.0092 78.0503 26.5524 75.5576 27.8755 72.9362C27.9536 72.7826 27.8791 72.6005 27.7195 72.5398C25.2717 71.6113 22.941 70.4792 20.699 69.1935C20.5216 69.09 20.5075 68.8363 20.6706 68.7149C21.1424 68.3614 21.6143 67.9935 22.0648 67.6221C22.1463 67.5543 22.2599 67.54 22.3557 67.5828C37.0848 74.3076 53.0308 74.3076 67.5861 67.5828C67.6819 67.5364 67.7955 67.5507 67.8805 67.6185C68.3312 67.99 68.803 68.3614 69.2783 68.7149C69.4415 68.8363 69.4308 69.09 69.2535 69.1935C67.0115 70.5041 64.6807 71.6113 62.2294 72.5362C62.0698 72.5969 61.9988 72.7826 62.0769 72.9362C63.4285 75.5539 64.9716 78.0466 66.6709 80.4108C66.7418 80.5109 66.8695 80.5537 66.9866 80.518C74.3405 78.2431 81.7973 74.8111 89.4954 69.1578C89.5628 69.1079 89.6054 69.0328 89.6125 68.9507C91.4891 49.5372 86.4693 32.6737 76.3058 17.7243C76.281 17.6744 76.2385 17.6386 76.1888 17.6172ZM30.0751 58.7225C25.6406 58.7225 21.9867 54.6513 21.9867 49.6515C21.9867 44.6517 25.5698 40.5805 30.0751 40.5805C34.6158 40.5805 38.2343 44.6874 38.1633 49.6515C38.1633 54.6513 34.5803 58.7225 30.0751 58.7225ZM59.9803 58.7225C55.546 58.7225 51.8921 54.6513 51.8921 49.6515C51.8921 44.6517 55.475 40.5805 59.9803 40.5805C64.5211 40.5805 68.1395 44.6874 68.0687 49.6515C68.0687 54.6513 64.5211 58.7225 59.9803 58.7225Z" fill="#403AF4"/>
</svg>
