<svg width="23" height="23" viewBox="0 0 23 23" fill="none" xmlns="http://www.w3.org/2000/svg">
<path fill-rule="evenodd" clip-rule="evenodd" d="M14.406 11.8797L22.2976 3.98815C23.0333 3.25239 23.0333 2.0678 22.3012 1.32836C21.5692 0.596275 20.3772 0.596276 19.6451 1.32836L11.7499 9.22363L3.85459 1.32836C3.1225 0.596278 1.93056 0.596278 1.19848 1.32836C0.466393 2.06045 0.466393 3.25239 1.19848 3.98447L9.09375 11.8797L1.32827 19.6452C0.596187 20.3773 0.596187 21.5692 1.32827 22.3013C2.06036 23.0334 3.2523 23.0334 3.98438 22.3013L11.7499 14.5359L19.5117 22.2977C20.2474 23.0334 21.432 23.0334 22.1714 22.3013C22.9035 21.5692 22.9035 20.3773 22.1714 19.6452L14.406 11.8797Z" fill="white"/>
</svg>
