<svg width="224" height="56" viewBox="0 0 224 56" fill="none" xmlns="http://www.w3.org/2000/svg">
<path fill-rule="evenodd" clip-rule="evenodd" d="M198.399 0.610107V2.76524H202.184V12.9735H204.768V2.76524H208.553V0.610107H198.399ZM213.271 0.610107H210.047V12.9735H212.583V4.89623H212.685L215.885 12.9131H217.611L220.811 4.92642H220.914V12.9735H223.449V0.610107H220.225L216.821 8.91674H216.676L213.271 0.610107ZM175.918 53.8667C177.699 54.9898 179.686 55.5487 181.878 55.5435C183.431 55.5398 184.746 55.2799 185.822 54.7638C186.91 54.2477 187.792 53.6005 188.466 52.8223C189.153 52.0316 189.684 51.235 190.058 50.4324L190.396 50.4316L190.407 55.0535L198.298 55.0348L198.206 16.5566L190.221 16.5755L190.256 31.0425L190.012 31.043C189.659 30.2673 189.144 29.4794 188.465 28.6794C187.8 27.8668 186.921 27.1925 185.83 26.6565C184.752 26.1079 183.405 25.8356 181.789 25.8394C179.672 25.8444 177.726 26.4002 175.95 27.5067C174.186 28.6006 172.775 30.251 171.715 32.458C170.656 34.6525 170.13 37.4031 170.138 40.7099C170.145 43.9289 170.665 46.6457 171.698 48.8603C172.743 51.0623 174.149 52.7311 175.918 53.8667ZM187.666 48.1084C186.778 48.8119 185.689 49.1652 184.399 49.1683C183.084 49.1714 181.975 48.8171 181.071 48.1053C180.18 47.3809 179.495 46.3805 179.016 45.104C178.55 43.815 178.314 42.3313 178.311 40.6529C178.307 38.987 178.535 37.5209 178.995 36.2548C179.456 34.9886 180.136 33.9975 181.036 33.2814C181.936 32.5653 183.044 32.2057 184.359 32.2025C185.649 32.1995 186.746 32.5413 187.649 33.2281C188.553 33.9148 189.244 34.8902 189.723 36.1541C190.202 37.4181 190.444 38.908 190.448 40.624C190.452 42.34 190.211 43.8374 189.726 45.1161C189.253 46.3949 188.566 47.3923 187.666 48.1084ZM71.0548 55.3371L70.9634 16.8588L86.3697 16.8222C89.2005 16.8155 91.5625 17.2295 93.4559 18.0642C95.3492 18.8989 96.7736 20.0604 97.7291 21.5487C98.6845 23.0244 99.1646 24.7268 99.1691 26.6557C99.1727 28.1587 98.8752 29.4809 98.2767 30.6221C97.6782 31.7509 96.8537 32.6797 95.8033 33.4087C94.7654 34.1251 93.5767 34.6352 92.2371 34.939L92.238 35.3148C93.7037 35.3739 95.0762 35.784 96.3556 36.545C97.6475 37.306 98.696 38.3745 99.5009 39.7504C100.306 41.1137 100.71 42.7411 100.715 44.6324C100.72 46.6741 100.217 48.4977 99.2061 50.1034C98.2078 51.6965 96.7265 52.9589 94.7622 53.8904C92.7979 54.822 90.3753 55.2912 87.4945 55.298L71.0548 55.3371ZM79.1743 48.6667L85.8065 48.651C88.0736 48.6456 89.726 48.2095 90.7635 47.3428C91.8011 46.4635 92.3181 45.2974 92.3147 43.8445C92.3121 42.7798 92.0531 41.841 91.5377 41.0281C91.0222 40.2151 90.2879 39.5781 89.3349 39.1169C88.3944 38.6557 87.2728 38.4266 85.9701 38.4297L79.15 38.4459L79.1743 48.6667ZM79.1369 32.941L85.168 32.9267C86.2827 32.924 87.2718 32.7275 88.1351 32.3372C89.0109 31.9343 89.6985 31.369 90.1978 30.6413C90.7096 29.9136 90.9643 29.0425 90.9619 28.0279C90.9586 26.6376 90.4612 25.5178 89.4697 24.6684C88.4906 23.819 87.0993 23.3964 85.2956 23.4007L79.1143 23.4154L79.1369 32.941ZM0.94199 55.5036L14.5822 55.4712C18.4902 55.4619 21.8452 54.6836 24.6472 53.1363C27.4618 51.589 29.6172 49.3731 31.1134 46.4887C32.6221 43.6042 33.3717 40.1579 33.3622 36.1498C33.3527 32.1542 32.5868 28.724 31.0644 25.8593C29.5545 22.9945 27.4012 20.8014 24.6043 19.2799C21.8075 17.7459 18.4739 16.9835 14.6035 16.9927L0.850586 17.0254L0.94199 55.5036ZM14.2275 48.5016L9.06071 48.5139L9.00242 23.9765L14.188 23.9642C16.5929 23.9585 18.6167 24.3795 20.2596 25.2273C21.9025 26.0752 23.1394 27.4 23.9703 29.2017C24.8138 31.0033 25.2389 33.3258 25.2457 36.1691C25.2525 39.0374 24.8385 41.3807 24.0036 43.1989C23.1812 45.0045 21.9443 46.3414 20.293 47.2096C18.6542 48.0652 16.6324 48.4959 14.2275 48.5016ZM44.7672 54.1595C46.9119 55.3568 49.4685 55.952 52.4371 55.9449C54.8169 55.9393 56.9141 55.5711 58.7285 54.8403C60.5555 54.0969 62.0436 53.0663 63.1928 51.7484C64.3545 50.4179 65.1211 48.8629 65.4927 47.0834L58.089 46.6125C57.8151 47.3396 57.4158 47.9543 56.8909 48.4566C56.366 48.9589 55.7344 49.3361 54.996 49.5884C54.2576 49.8407 53.4437 49.9679 52.5544 49.97C51.2142 49.9732 50.0549 49.6941 49.0766 49.1328C48.0982 48.5714 47.3386 47.7716 46.7975 46.7333C46.2689 45.6949 46.003 44.4618 45.9996 43.0339L45.9995 43.0151L65.652 42.9684L65.6468 40.7702C65.6409 38.3152 65.2914 36.1742 64.5982 34.3471C63.9049 32.5075 62.9368 30.9817 61.6939 29.7696C60.4635 28.5576 59.0209 27.6529 57.3661 27.0556C55.7238 26.4458 53.9508 26.1431 52.0469 26.1476C49.2161 26.1543 46.7501 26.7865 44.6488 28.044C42.56 29.3015 40.9421 31.0527 39.7951 33.2975C38.6481 35.5423 38.0781 38.1489 38.0852 41.1175C38.0924 44.1612 38.6748 46.7964 39.8325 49.0232C40.9901 51.2375 42.635 52.9496 44.7672 54.1595ZM45.9953 38.055C46.0411 37.0186 46.3056 36.0723 46.7889 35.2161C47.3128 34.2754 48.0375 33.5284 48.963 32.9751C49.9011 32.4092 50.9776 32.1248 52.1926 32.122C53.3575 32.1192 54.3789 32.3735 55.2569 32.885C56.1474 33.3839 56.8442 34.0774 57.3473 34.9655C57.8505 35.8536 58.1034 36.8739 58.1061 38.0262L45.9953 38.055ZM111.348 53.9449C113.48 55.1799 116.005 55.7939 118.924 55.787C121.842 55.7801 124.358 55.1541 126.472 53.909C128.599 52.6514 130.235 50.9065 131.382 48.6742C132.529 46.4294 133.099 43.829 133.092 40.873C133.085 37.8919 132.503 35.288 131.345 33.0612C130.188 30.8219 128.543 29.0848 126.41 27.8498C124.291 26.6023 121.771 25.982 118.853 25.9889C115.935 25.9959 113.412 26.6281 111.286 27.8857C109.172 29.1308 107.542 30.8757 106.394 33.1205C105.247 35.3528 104.677 37.9594 104.685 40.9405C104.692 43.8965 105.274 46.4942 106.432 48.7335C107.589 50.9603 109.228 52.6974 111.348 53.9449ZM122.269 48.4516C121.382 49.2052 120.274 49.5836 118.947 49.5868C117.606 49.59 116.478 49.2169 115.562 48.4675C114.658 47.7056 113.973 46.6676 113.507 45.3536C113.053 44.0395 112.824 42.5432 112.82 40.8648C112.816 39.1864 113.038 37.6891 113.485 36.3728C113.946 35.0565 114.626 34.0153 115.526 33.2491C116.438 32.4829 117.565 32.0982 118.905 32.095C120.233 32.0918 121.342 32.4712 122.233 33.2332C123.124 33.9951 123.797 35.0331 124.251 36.3472C124.718 37.6613 124.953 39.1576 124.957 40.836C124.961 42.5144 124.733 44.0117 124.272 45.328C123.825 46.6442 123.157 47.6854 122.269 48.4516ZM146.295 38.4743L146.334 55.1582L138.331 55.1772L138.262 26.3186L145.89 26.3005L145.902 31.3921L146.24 31.3913C146.875 29.7113 147.943 28.3811 149.444 27.4005C150.944 26.4074 152.766 25.9084 154.908 25.9033C156.912 25.8985 158.66 26.3328 160.153 27.206C161.645 28.0792 162.807 29.329 163.637 30.9554C164.468 32.5692 164.886 34.4971 164.891 36.7392L164.935 55.114L156.931 55.1331L156.891 38.1861C156.899 36.42 156.445 35.0433 155.528 34.0559C154.611 33.0561 153.351 32.558 151.748 32.5618C150.671 32.5644 149.72 32.7984 148.894 33.2638C148.081 33.7292 147.444 34.4071 146.982 35.2975C146.534 36.1753 146.304 37.2343 146.295 38.4743Z" fill="white"/>
</svg>
