<svg width="300" height="300" viewBox="0 0 300 300" fill="none" xmlns="http://www.w3.org/2000/svg">
<g clip-path="url(#clip0_485_1351)">
<path d="M3.05176e-05 317L300 317L300 -3.05176e-05L2.80456e-06 -4.29075e-06L3.05176e-05 317Z" fill="#121212"/>
<path d="M477.943 110.536C491.254 126.159 499.739 145.22 502.391 165.456C504.855 187.563 500.734 209.899 490.534 229.736C479.831 252.047 461.223 273.915 434.711 295.342C407.003 318.054 380.911 332.223 356.436 337.847C331.96 343.472 310.025 342.816 290.629 335.879C271.943 329.428 255.391 318.081 242.751 303.056C234.035 293.101 227.625 281.393 223.967 268.746C220.832 257.678 220.11 246.081 221.848 234.718C223.496 224.022 227.085 213.706 232.442 204.265L231.464 203.1L101.412 298.889L43.288 223.48L367.121 -13.1938L420.612 48.0236L382.921 78.7174L384.388 80.5252C394.788 77.3204 405.717 76.1201 416.578 76.9898C427.847 77.9513 438.799 81.1636 448.768 86.431C460.035 92.4547 469.957 100.652 477.943 110.536Z" fill="#C4C4C4"/>
<path d="M235.331 -25.7776C237.702 -1.72512 234.885 19.3303 226.878 37.3885C219.146 55.0632 206.318 70.1089 189.987 80.6569C172.184 91.8888 151.833 98.591 130.758 100.163C109.771 102.665 88.4815 99.9877 68.8038 92.3702C50.7063 85.1406 35.1742 72.8075 24.1526 56.9152C12.7492 40.7393 5.86104 20.6139 3.48805 -3.46091C1.08269 -22.8842 3.25987 -42.5927 9.84989 -61.05C15.6961 -77.0464 26.1251 -91.0261 39.8716 -101.293C54.3787 -111.81 71.5674 -118.141 89.5151 -119.576L96.8091 -45.5762C85.1341 -43.3979 76.472 -39.1863 70.8226 -32.9414C68.0472 -29.9058 65.9697 -26.3149 64.7322 -22.4143C63.4947 -18.5138 63.1265 -14.3957 63.6528 -10.3418C64.183 -3.76363 66.9589 2.44315 71.5275 7.26555C76.8727 12.4892 83.6338 16.0802 90.9986 17.6073C101.18 19.7912 111.663 20.2617 122.003 18.9987C132.397 18.2794 142.593 15.8275 152.156 11.7472C159.084 8.8505 165.018 4.04309 169.243 -2.09756C172.873 -7.71966 174.442 -14.3976 173.688 -21.0207C173.253 -26.5055 171.274 -31.7616 167.974 -36.1975C164.511 -40.6355 159.88 -44.0516 154.585 -46.0737C148.138 -48.458 141.264 -49.5141 134.387 -49.1769L127.122 -122.875C145.247 -124.763 163.554 -121.848 180.155 -114.431C195.747 -107.09 208.82 -95.4127 217.763 -80.837C227.862 -64.0718 233.876 -45.224 235.331 -25.7776Z" fill="#403AF4"/>
</g>
<defs>
<clipPath id="clip0_485_1351">
<rect width="300" height="300" fill="white" transform="translate(300 300) rotate(180)"/>
</clipPath>
</defs>
</svg>
