<svg width="28" height="16" viewBox="0 0 28 16" fill="none" xmlns="http://www.w3.org/2000/svg">
<path fill-rule="evenodd" clip-rule="evenodd" d="M7.799 0C12.107 0 15.5988 3.49264 15.5988 7.7998C15.5988 12.107 12.107 15.5996 7.799 15.5996C3.49183 15.5996 0 12.107 0 7.7998C0 3.49264 3.49183 0 7.799 0ZM20.2788 0.616348C22.4587 0.616348 24.2253 3.83236 24.2253 7.7998C24.2253 11.7672 22.4587 14.9833 20.2788 14.9833C18.099 14.9833 16.3324 11.7672 16.3324 7.7998C16.3324 3.83236 18.099 0.616348 20.2788 0.616348ZM26.3647 1.23189C27.1234 1.23189 27.7389 4.17208 27.7389 7.7998C27.7389 11.4275 27.1234 14.3677 26.3647 14.3677C25.6052 14.3677 24.9896 11.4275 24.9896 7.7998C24.9896 4.17208 25.6052 1.23189 26.3647 1.23189Z" fill="#BABABA"/>
</svg>
