<svg width="300" height="300" viewBox="0 0 300 300" fill="none" xmlns="http://www.w3.org/2000/svg">
<g clip-path="url(#clip0_485_1350)">
<path d="M300 0H0V300H300V0Z" fill="#121212"/>
<path d="M-104.09 167.14V334.28H-211.191V37.1202H-109.536V93.6221H-106.414C-100.42 75.3849 -88.3412 59.7457 -72.1901 49.3088C-55.8123 38.5925 -36.6995 33.2344 -14.8517 33.2344C6.22157 33.2344 24.5598 38.0615 40.1631 47.7159C55.7131 57.2853 68.2842 70.9829 76.4685 87.2744C85.3094 105.12 89.6622 124.844 89.1512 144.742V334.328H-17.9498V167.14C-17.8207 152.417 -21.54 140.872 -29.1076 132.505C-36.6753 124.138 -47.1635 119.946 -60.5723 119.93C-68.61 119.742 -76.551 121.709 -83.5658 125.626C-90.0904 129.429 -95.3313 135.084 -98.6204 141.87C-102.298 149.785 -104.167 158.416 -104.09 167.14Z" fill="#C4C4C4"/>
<path d="M205.711 292.181C241.715 292.181 270.902 263.076 270.902 227.173C270.902 191.269 241.715 162.164 205.711 162.164C169.707 162.164 140.52 191.269 140.52 227.173C140.52 263.076 169.707 292.181 205.711 292.181Z" fill="#403AF4"/>
</g>
<defs>
<clipPath id="clip0_485_1350">
<rect width="300" height="300" fill="white"/>
</clipPath>
</defs>
</svg>
